<?xml version="1.0" standalone="no"?>
<!DOCTYPE svg PUBLIC "-//W3C//DTD SVG 20010904//EN"
 "http://www.w3.org/TR/2001/REC-SVG-20010904/DTD/svg10.dtd">
<svg version="1.0" xmlns="http://www.w3.org/2000/svg"
 width="658.000000pt" height="304.000000pt" viewBox="0 0 658.000000 304.000000"
 preserveAspectRatio="xMidYMid meet">

<g transform="translate(0.000000,304.000000) scale(0.100000,-0.100000)"
fill="#000000" stroke="none">
<path d="M4895 2209 c-47 -41 -65 -78 -65 -131 0 -150 189 -190 277 -59 17 25
23 48 23 87 0 48 -4 57 -38 94 -37 38 -42 40 -100 40 -54 0 -65 -4 -97 -31z"/>
<path d="M6344 2221 c-72 -44 -102 -135 -68 -206 60 -127 258 -85 289 62 9 46
-10 97 -51 133 -29 25 -43 30 -87 30 -33 0 -63 -7 -83 -19z"/>
<path d="M473 2215 c-84 -15 -140 -41 -161 -72 -13 -21 -12 -25 17 -50 17 -15
31 -37 31 -48 1 -11 -61 -221 -136 -466 -95 -309 -135 -454 -131 -471 10 -37
54 -51 141 -46 76 5 105 18 168 76 l27 25 36 -32 c74 -65 108 -76 235 -76 109
0 118 2 181 32 121 60 221 193 265 354 27 96 24 240 -5 304 -27 62 -74 112
-126 136 -80 37 -230 15 -291 -42 -13 -13 -24 -19 -24 -15 0 4 16 60 35 123
44 145 45 181 5 226 -49 56 -125 68 -267 42z m283 -531 c23 -91 -60 -388 -126
-454 -22 -22 -70 -26 -88 -8 -20 20 -14 54 48 257 64 208 77 231 131 231 23 0
30 -6 35 -26z"/>
<path d="M1735 1893 c-169 -20 -288 -74 -391 -177 -76 -76 -113 -141 -139
-241 -52 -203 38 -357 240 -410 77 -20 252 -20 330 0 261 66 438 293 423 541
-5 84 -28 135 -86 191 -50 49 -119 77 -226 92 -77 11 -93 11 -151 4z m79 -159
c12 -31 6 -81 -25 -194 -74 -276 -141 -389 -201 -341 -22 18 -22 20 -9 96 23
141 100 361 147 422 28 36 77 46 88 17z"/>
<path d="M2560 1894 c-129 -21 -201 -49 -220 -84 -8 -15 -5 -25 20 -53 16 -19
30 -41 30 -48 0 -18 -146 -493 -159 -517 -6 -11 -26 -31 -46 -46 -39 -30 -45
-60 -16 -76 30 -15 449 -13 481 3 32 16 37 48 10 72 -11 10 -20 31 -20 46 0
41 105 378 127 408 47 62 113 79 128 32 3 -11 -19 -85 -55 -180 -82 -219 -82
-285 0 -355 43 -36 101 -49 195 -44 108 6 183 47 221 120 26 50 13 118 -16 83
-14 -17 -46 -20 -54 -6 -3 5 19 89 50 187 62 202 71 251 55 312 -26 94 -103
146 -219 145 -61 -1 -83 -6 -137 -32 -39 -19 -80 -50 -104 -78 -30 -33 -41
-41 -41 -28 0 37 -41 103 -73 118 -35 17 -117 28 -157 21z"/>
<path d="M3690 1894 c-129 -21 -201 -49 -220 -84 -8 -15 -5 -25 20 -53 16 -19
30 -41 30 -48 0 -18 -146 -493 -159 -517 -6 -11 -26 -31 -46 -46 -39 -30 -45
-60 -16 -76 30 -15 449 -13 481 3 32 16 37 48 10 72 -11 10 -20 31 -20 46 0
41 105 378 127 408 47 62 113 79 128 32 3 -11 -19 -85 -55 -180 -45 -120 -61
-176 -61 -215 -2 -121 82 -187 235 -186 112 1 196 41 235 111 32 57 24 134 -9
94 -14 -17 -46 -20 -54 -6 -3 5 19 89 50 187 62 202 71 251 55 312 -26 94
-103 146 -219 145 -61 -1 -83 -6 -137 -32 -39 -19 -80 -50 -104 -78 -30 -33
-41 -41 -41 -28 0 37 -41 103 -73 118 -35 17 -117 28 -157 21z"/>
<path d="M4772 1885 c-147 -27 -205 -79 -148 -132 14 -13 26 -33 26 -44 0 -21
-135 -477 -153 -516 -5 -12 -27 -34 -48 -48 -43 -28 -51 -58 -20 -75 25 -13
451 -13 486 0 37 14 41 35 11 71 -14 17 -26 39 -26 49 0 9 36 135 80 278 44
142 80 276 80 296 0 50 -23 90 -62 109 -49 23 -143 28 -226 12z"/>
<path d="M5458 1884 c-124 -29 -256 -122 -312 -218 -46 -79 -68 -164 -69 -263
-1 -86 2 -97 34 -160 62 -122 178 -183 348 -183 100 0 175 21 244 69 81 55
137 136 137 196 0 31 -10 31 -85 0 -79 -32 -194 -35 -242 -5 -63 38 -86 104
-72 209 5 34 18 79 29 100 22 44 89 105 130 120 l28 9 -5 -51 c-4 -43 -1 -58
19 -87 43 -64 135 -88 211 -56 109 46 116 192 12 271 -79 61 -267 84 -407 49z"/>
<path d="M6204 1886 c-92 -18 -160 -48 -169 -76 -5 -16 0 -29 20 -50 15 -16
27 -39 27 -52 0 -31 -140 -497 -158 -525 -7 -12 -27 -30 -43 -39 -41 -24 -47
-45 -21 -66 20 -16 47 -18 240 -18 280 0 310 11 255 90 l-27 39 81 265 c85
277 96 340 65 385 -35 49 -150 69 -270 47z"/>
</g>
</svg>
